HIERARCHY
ROOT simHips
{
  OFFSET -207.309 99.2161 274.177
  CHANNELS 6 Xposition Yposition Zposition Zrotation Xrotation Yrotation
  JOINT simSpine
  {
    OFFSET -0.000355721 21.3001 -0.016921
    CHANNELS 3 Zrotation Xrotation Yrotation
    JOINT simLeftArm
    {
      OFFSET 13.5181 21.3012 0
      CHANNELS 3 Zrotation Xrotation Yrotation
      JOINT simLeftForeArm
      {
        OFFSET 24.5783 0 0
        CHANNELS 3 Zrotation Xrotation Yrotation
        JOINT simLeftHand
        {
          OFFSET 24.5783 0 0
          CHANNELS 3 Zrotation Xrotation Yrotation
          End Site
          {
            OFFSET 7.32568 1.52588e-05 0.0169305
          }
        }
      }
    }
    JOINT simHead
    {
      OFFSET 0 27.4458 -0.00489235
      CHANNELS 3 Zrotation Xrotation Yrotation
      End Site
      {
        OFFSET 0 0 0
      }
    }
    JOINT simRightArm
    {
      OFFSET -13.5174 21.3012 0
      CHANNELS 3 Zrotation Xrotation Yrotation
      JOINT simRightForeArm
      {
        OFFSET -24.5783 0 0
        CHANNELS 3 Zrotation Xrotation Yrotation
        JOINT simRightHand
        {
          OFFSET -24.5783 0 0
          CHANNELS 3 Zrotation Xrotation Yrotation
          End Site
          {
            OFFSET -7.32568 1.52588e-05 0.0169305
          }
        }
      }
    }
  }
  JOINT simRightUpLeg
  {
    OFFSET -8.44614 -9.41038 0.835684
    CHANNELS 3 Zrotation Xrotation Yrotation
    JOINT simRightLeg
    {
      OFFSET 0 -40.9639 0
      CHANNELS 3 Zrotation Xrotation Yrotation
      JOINT simRightFoot
      {
        OFFSET 0 -40.9639 0
        CHANNELS 3 Zrotation Xrotation Yrotation
        End Site
        {
          OFFSET 0.50614 -9.67405 14.6709
        }
      }
    }
  }
  JOINT simLeftUpLeg
  {
    OFFSET 8.44614 -9.41038 0.835684
    CHANNELS 3 Zrotation Xrotation Yrotation
    JOINT simLeftLeg
    {
      OFFSET 0 -40.9639 0
      CHANNELS 3 Zrotation Xrotation Yrotation
      JOINT simLeftFoot
      {
        OFFSET 0 -40.9639 0
        CHANNELS 3 Zrotation Xrotation Yrotation
        End Site
        {
          OFFSET -0.50614 -9.67405 14.6709
        }
      }
    }
  }
}
MOTION
Frames:	29
Frame Time:	0.0333333
38.2009 96.9143 417.418 -1.51087 -3.31998 73.3481 0.616268 0.886511 -2.01572 -43.2134 70.6505 -29.7874 9.19618 -10.7109 -25.1081 4.41505 -19.3589 3.17103 -6.31002 6.52158 -41.023 70.319 20.4249 -4.48756 -18.35 -13.0435 41.2801 16.1489 -17.1868 0.092014 -0.923515 -20.57 6.60907 4.8041 31.1662 3.38466 2.02024 -6.51375 4.20118 9.23122 -10.3122 -8.15121 -19.4154 61.1031 4.92172 -8.33241 8.2478 -6.51271 
40.5027 97.3049 418.941 -1.12869 -3.92741 76.0033 0.611328 0.925274 -1.89582 -40.9891 72.5726 -31.1792 5.32321 -8.51209 -21.5711 -2.96572 -14.2574 4.92796 -6.11309 8.05344 -41.4889 67.6012 18.8803 -4.00416 -18.443 -14.2888 45.8126 16.3952 -23.2424 0.586567 -0.195617 -17.2227 5.54287 4.53859 30.0298 2.57686 1.69923 -8.00751 3.5647 9.42398 -16.1062 -10.5967 -28.7796 68.0999 17.084 -9.01514 6.11172 -4.52427 
42.8993 97.8418 420.357 -0.685797 -3.5962 77.5385 0.386345 0.930774 -1.55782 -45.5976 73.5171 -25.8285 2.99133 -7.49925 -19.7185 -9.89888 -7.89013 5.9902 -7.01603 8.48028 -40.5148 64.575 17.064 -2.97462 -18.2896 -14.9266 49.0573 15.29 -27.8308 0.0429064 -0.290134 -13.6537 4.20596 3.96259 27.9952 2.70223 1.41698 -8.90643 3.39943 8.11757 -21.2981 -10.4616 -35.7955 72.3992 27.2965 -8.11647 4.48351 -2.4504 
45.4016 98.4036 421.623 -0.482612 -2.85292 77.9792 0.0808474 0.872568 -1.05111 -55.9763 73.8058 -14.4099 2.27873 -7.23152 -19.2977 -13.5192 -4.9445 6.32526 -8.35824 8.13799 -38.1519 61.8624 15.485 -1.09074 -18.2092 -15.1204 50.2432 14.3507 -30.0157 -0.602817 -0.483839 -10.5198 3.50701 3.12247 25.6235 3.13437 1.29085 -9.30924 3.34172 6.67228 -25.6247 -8.18609 -37.07 74.0429 31.268 -5.82564 4.11965 -0.777624 
48.0075 98.7121 422.685 -0.642815 -2.52261 77.9296 -0.102432 0.765224 -0.494203 -69.3491 72.6146 0.828306 2.75368 -7.43094 -20.1821 -13.8513 -5.75956 5.80087 -9.35459 7.25434 -34.7181 59.8975 14.9043 1.3456 -18.4821 -15.2693 49.4457 14.2261 -31.2118 -0.650488 -0.188453 -7.46979 3.21601 2.28471 23.016 3.54186 1.30084 -9.74513 3.30371 6.04679 -29.3041 -5.18771 -32.8309 73.1496 28.3653 -4.53114 4.45054 -0.0117778 
50.7461 98.6622 423.602 -1.07727 -2.62111 77.8704 -0.157187 0.636141 0.0332926 -80.7716 69.2165 14.7922 3.84516 -7.93362 -21.9224 -12.2346 -8.16499 4.52937 -9.94854 5.82173 -30.5134 58.4821 15.2248 3.78634 -18.9868 -15.4064 47.6105 14.2936 -32.3685 -0.55682 0.34089 -4.98108 2.58309 1.7391 21.2041 4.01291 1.35694 -10.7023 3.45407 5.99871 -32.3156 -2.58926 -27.7807 70.1651 23.4365 -3.18075 3.09603 -0.272778 
53.6179 98.2514 424.404 -1.7136 -2.97533 77.9017 -0.131518 0.507839 0.519215 -87.4774 64.0954 24.4165 5.00995 -8.56579 -23.9307 -9.97784 -10.7491 2.78324 -10.2079 3.78884 -25.8895 57.4831 15.918 5.80641 -19.401 -15.3721 45.7514 14.1357 -33.1875 -0.888502 0.964336 -3.09082 1.87701 1.54369 20.5452 4.35954 1.21948 -12.2837 3.65265 6.22779 -34.6107 -0.809632 -23.1469 64.8995 17.9412 -2.74768 2.65869 -1.06541 
56.5822 97.6387 425.141 -2.53377 -3.28274 77.8726 -0.0920382 0.386834 0.975186 -90.6419 58.1382 30.2978 6.0332 -9.19716 -25.6443 -7.73774 -13.409 1.09447 -10.2641 1.10632 -21.2578 56.5473 17.2796 7.36374 -19.6499 -15.1707 44.0977 14.2678 -33.9031 -1.3108 1.62401 -1.87264 1.87142 1.45553 20.8553 4.23291 1.10792 -14.348 3.58442 6.2529 -36.0117 0.557049 -18.758 57.4121 12.3307 -1.8686 0.947604 -2.12076 
59.5677 97.0447 425.853 -3.55489 -3.34618 77.8124 -0.0796815 0.263873 1.36818 -91.9248 51.851 33.5166 6.97637 -9.78643 -26.6848 -5.70416 -15.6635 0.179187 -10.2415 -2.18126 -17.1638 55.2191 19.9152 8.60833 -19.7812 -14.7731 42.2785 15.3413 -35.1922 -1.10981 2.19226 -0.762756 2.35199 1.23966 20.8893 3.83866 1.15235 -16.2862 3.30653 5.67206 -36.4583 2.19057 -13.639 47.5107 6.43828 -0.820507 0.626564 -2.74807 
62.6024 96.5722 426.499 -4.67412 -3.59618 78.0008 -0.00898079 0.155647 1.63995 -92.0502 45.4644 34.9427 7.90566 -10.322 -27.0259 -3.91648 -16.3349 0.449916 -9.89694 -5.66543 -14.0888 53.8502 23.7172 9.42861 -19.6399 -13.9945 40.1173 17.2078 -36.4628 -0.247512 2.85847 0.399165 2.37758 0.992681 20.5797 3.68648 1.52079 -17.2132 3.19769 4.29316 -35.4524 4.47754 -7.43267 35.3923 0.482248 -1.44589 0.0352679 -2.92046 
65.6953 96.1718 427.065 -5.54096 -3.8664 78.6061 0.0740352 0.105212 1.76153 -91.9373 39.3635 35.4031 8.78579 -10.7701 -26.844 -2.46046 -14.9216 1.74431 -9.50361 -8.70468 -12.1518 52.6822 28.3049 9.52802 -19.0623 -12.7927 37.7755 18.9768 -36.6617 0.5908 3.28276 1.89762 1.54354 0.715623 20.0743 4.07644 2.36712 -17.494 3.4879 1.94865 -34.3217 6.7754 -1.86032 24.6804 -4.10153 -1.91335 1.14754 -3.17546 
68.7531 95.959 427.537 -5.8309 -3.3527 79.6656 -0.0292745 0.183146 1.73407 -92.7044 34.5993 35.2831 9.3201 -10.9167 -25.9769 -1.20626 -12.8357 3.38674 -9.78293 -10.8841 -11.2858 51.8433 33.4013 8.55664 -18.164 -11.3812 35.3237 19.6052 -36.1492 0.670452 2.41461 3.42336 -0.00633785 0.777192 20.2956 4.88207 3.44154 -17.418 4.19377 -2.10232 -33.2382 5.91786 1.37462 19.933 -3.83337 5.56532 8.30411 -2.34806 
71.9802 95.8667 427.826 -5.5746 -2.75776 80.9288 -0.195151 0.418944 1.65471 -93.8326 32.1133 34.5418 8.9953 -10.4195 -23.9014 -0.0586242 -12.292 4.64843 -10.1939 -12.27 -11.283 53.1044 38.1923 6.12244 -17.1197 -9.86646 32.3698 18.2876 -35.6844 -0.588469 0.639042 3.11017 -2.3154 1.69932 25.0265 5.84252 4.43881 -15.5373 5.21686 -4.89477 -32.9224 1.04154 1.61266 23.3751 -1.33239 8.37459 8.24494 -0.992251 
75.2208 95.6149 428.074 -5.09359 -2.1205 82.3679 -0.369114 0.703215 1.57388 -94.8297 31.9275 33.0573 7.54183 -9.35208 -20.9428 0.184548 -13.7353 5.1076 -10.822 -12.9158 -12.0918 57.2228 40.7286 2.14186 -15.7873 -8.06389 28.2281 15.0107 -34.3115 -3.33104 -1.88119 0.60719 -4.63817 3.23143 33.7625 6.88663 5.33495 -11.0553 6.41184 -6.69615 -33.1512 -5.20384 -0.979729 29.023 2.49836 9.20947 4.43663 0.668605 
78.4883 95.4088 428.335 -4.72397 -1.97515 84.0965 -0.385012 0.879746 1.423 -95.0832 33.5063 31.1298 5.6606 -8.37619 -18.6151 -1.88772 -15.5445 4.58936 -11.2328 -12.2195 -13.6746 63.5631 39.753 -2.44831 -13.9431 -5.97864 22.8543 11.5883 -30.1401 -6.24123 -4.31917 -3.50647 -5.62456 5.16043 44.0813 7.16966 10.7809 -2.36513 7.06104 -6.58665 -32.7334 -7.22067 -4.4124 33.2336 4.63663 9.09977 0.082658 0.81437 
81.7345 95.3681 428.612 -4.41416 -1.84841 86.0435 -0.356095 0.923889 1.10065 -95.5974 36.999 29.7283 4.49591 -7.93423 -18.1467 -6.18129 -16.4109 3.13433 -11.4633 -9.75583 -16.0409 69.3634 36.6774 -6.45431 -11.7111 -4.07227 17.5113 10.256 -23.4957 -7.69153 -5.91032 -8.72594 -4.79782 8.18482 54.7067 4.89689 12.0587 7.03408 6.02753 -6.12756 -31.2638 -4.10547 -5.19128 35.5775 2.9397 10.4095 -3.32153 -0.615866 
84.961 95.4838 428.882 -3.90902 -1.24966 88.2459 -0.440259 0.956157 0.58782 -97.2164 42.8043 29.4277 4.41871 -7.99256 -19.341 -10.1028 -16.2127 1.08236 -11.5554 -6.07286 -19.5996 73.5813 34.5838 -10.5346 -9.48877 -2.8194 14.171 10.8909 -17.6718 -7.75271 -7.41025 -14.0182 -2.85533 13.9747 64.1015 -1.00172 12.1598 13.7576 4.65547 -6.61058 -28.7647 -0.756858 -4.1105 36.6074 -0.420272 11.3193 -5.87347 -2.25623 
88.1554 95.6247 429.197 -3.2082 -0.339974 90.6595 -0.610371 1.04569 0.0096568 -99.3386 49.8308 29.7288 5.1461 -8.40096 -21.0934 -10.8366 -15.399 -0.677759 -11.3093 -2.25757 -24.5097 77.6791 34.8944 -15.9938 -8.05291 -2.37868 13.8869 11.592 -15.8126 -7.10583 -8.77313 -18.3773 -1.02179 22.0554 71.0496 -10.8934 14.4037 11.9227 3.04989 -7.97916 -25.6479 -1.36309 -4.04127 36.7474 -1.38665 11.715 -7.82673 -2.73901 
91.4817 96.0828 429.489 -2.4643 -0.207363 93.0907 -0.602066 1.1344 -0.522495 -99.9873 56.1893 29.3497 6.40056 -9.07669 -22.7225 -8.31319 -14.2864 -1.07312 -9.89006 1.17194 -30.1538 83.3255 35.2655 -22.4898 -8.11991 -2.59839 15.5498 11.196 -17.3318 -6.16363 -8.70822 -22.5028 -0.0537929 29.3372 74.9673 -20.6578 12.2563 11.3748 1.49474 -8.44676 -21.748 -4.21245 -4.92601 35.5364 -0.68579 11.773 -9.15169 -2.54478 
94.8479 96.616 429.809 -1.93383 -0.298107 94.9509 -0.52434 1.13519 -0.976486 -98.9146 60.8003 27.6051 8.1237 -10.0731 -24.3927 -4.7179 -12.6067 -0.0916497 -7.67049 4.23492 -35.3168 87.8642 32.5238 -27.5457 -8.97366 -3.06959 17.2048 10.6135 -18.3605 -5.10098 -8.07967 -26.2254 0.831723 29.729 75.9053 -23.3707 11.0913 11.3524 -0.0188937 -8.17828 -17.7315 -6.04481 -5.29887 33.5534 -0.586372 11.6224 -10.1555 -2.51191 
98.2692 97.1494 430.041 -1.65629 -0.480799 96.1985 -0.432921 1.04287 -1.42113 -96.1182 64.0492 24.586 10.0796 -11.4307 -26.5978 -1.94085 -10.1063 1.22545 -4.66623 6.95094 -39.5373 89.3823 26.6795 -29.823 -9.60495 -3.40243 18.102 11.3098 -16.4629 -3.90942 -7.39034 -29.4157 1.69967 24.1455 74.5197 -19.1117 10.0665 8.71624 -0.466635 -7.61517 -13.5864 -6.34468 -4.73064 30.7785 -1.52407 11.3448 -10.8253 -2.75797 
101.702 97.4259 430.213 -1.59918 -0.424027 97.0181 -0.412654 0.90441 -1.85974 -91.6361 66.3312 20.3014 11.7157 -12.9879 -29.5683 -0.494853 -6.9861 1.9111 -1.30898 9.09804 -42.9886 89.0434 21.0556 -30.5425 -10.0843 -3.6365 18.5519 12.8981 -12.9383 -3.0668 -7.10444 -31.8787 2.45999 16.2989 70.345 -11.1018 9.64659 5.95134 0.165782 -7.29126 -9.64656 -6.2164 -4.02284 27.9341 -2.48271 11.0101 -11.4712 -2.98053 
105.158 97.4141 430.326 -1.61349 -0.405534 97.6688 -0.397539 0.777685 -2.2491 -85.1068 67.7137 14.5215 12.635 -14.4418 -33.0642 -0.150048 -4.17425 1.63328 2.18506 10.4907 -46.0317 88.8317 18.4154 -30.8758 -10.6856 -3.94375 19.1256 13.6459 -10.2529 -2.81749 -6.49712 -33.4658 3.12983 9.08931 63.4015 -4.0441 10.5227 4.06388 0.570027 -6.91322 -6.0743 -6.18945 -3.55953 25.6471 -3.10957 10.6389 -12.3487 -3.10389 
108.613 97.0994 430.376 -1.65703 -0.567298 98.2665 -0.348951 0.692697 -2.55917 -77.0738 68.2228 7.5803 12.9352 -15.6045 -36.5669 -0.765235 -3.17146 0.583803 5.24334 10.9808 -48.7278 88.9654 18.2319 -31.026 -11.5017 -4.41753 20.1239 12.8006 -8.73079 -2.99812 -5.74794 -33.8221 3.97152 5.06666 53.7127 0.190859 9.55012 2.69152 1.41349 -6.32299 -2.94713 -6.46472 -3.42596 24.1905 -3.3396 10.3921 -13.8621 -3.07961 
112.014 96.6542 430.297 -1.74076 -0.993168 98.8595 -0.253158 0.6558 -2.79667 -68.8447 67.8116 0.483581 12.9213 -16.4763 -39.6672 -2.24534 -4.71783 -0.819872 7.28801 10.5075 -50.8034 88.7056 18.2217 -30.6766 -12.618 -5.13234 21.5802 11.2664 -7.01965 -3.36335 -5.14674 -33.1095 5.57716 3.93278 41.6539 3.01478 8.47183 2.16134 3.01918 -5.52321 -0.069408 -7.01883 -3.38654 23.0491 -3.36974 10.3055 -15.6853 -2.94117 
115.414 96.0658 430.162 -1.82827 -1.15451 99.4251 -0.227061 0.655226 -2.97022 -62.4841 66.5236 -5.29056 12.7913 -17.0891 -42.1301 -3.96697 -7.8814 -2.23121 7.81516 9.54434 -51.868 87.393 17.3953 -29.8466 -14.0123 -6.14448 23.548 10.3114 -4.56316 -3.43447 -5.19867 -31.1849 7.74626 3.66056 28.7085 5.15653 11.2632 1.86634 4.21922 -4.87695 2.58538 -7.03247 -3.48343 22.371 -3.66578 10.4896 -17.4841 -3.00908 
118.898 95.3526 430.04 -1.67264 -1.10806 99.8359 -0.253313 0.687399 -3.04142 -58.899 64.7148 -8.78396 12.7114 -17.5116 -43.7574 -4.92252 -10.6437 -3.30858 7.72105 9.24185 -51.668 85.5532 16.4819 -28.9014 -15.5901 -7.48952 26.0643 10.365 -2.07639 -3.01574 -5.35123 -28.9124 8.25748 2.46109 19.1058 8.55779 17.8033 0.520557 5.93756 -4.1474 5.13588 -5.84822 -3.8003 22.4922 -4.48976 11.1858 -18.8705 -3.48678 
122.198 94.9484 429.754 -1.04233 -2.27854 99.6212 -0.0120456 0.787188 -2.90733 -57.6097 62.3506 -9.42442 12.8483 -17.8922 -44.4911 -4.42928 -11.2543 -3.66974 9.20294 10.3927 -50.0238 84.5085 16.5762 -27.5494 -17.2176 -9.07874 28.737 11.2154 -0.0409196 -2.66503 -3.34418 -28.5343 6.33413 2.71107 19.6278 9.87847 12.9664 5.38777 6.444 -2.19462 7.52296 -3.99948 -3.97661 23.1613 -5.47858 11.1994 -19.437 -4.215 
125.569 94.5897 429.451 -0.155777 -3.57594 98.9743 0.299388 0.960764 -2.67231 -59.1522 59.668 -7.45721 13.2431 -18.2593 -44.314 -2.16161 -9.87894 -3.42891 11.543 12.439 -47.7025 83.1377 17.5116 -25.3622 -18.6827 -10.6028 30.8173 12.8176 1.73173 -3.17261 -1.63576 -29.367 3.56312 4.00554 26.6439 10.4169 6.30789 4.16423 7.96275 -0.00344317 8.4295 -1.82905 -4.58328 27.046 -6.09753 10.2926 -18.9273 -5.21646 
